<?xml version="1.0" encoding="UTF-8"?>
<svg version="1.1" xmlns="http://www.w3.org/2000/svg" width="200" height="200">
<path d="M0 0 C66 0 132 0 200 0 C200 66 200 132 200 200 C134 200 68 200 0 200 C0 134 0 68 0 0 Z " fill="#FEFEFE" transform="translate(0,0)"/>
<path d="M0 0 C1.875 1.5 1.875 1.5 3 3 C3.33 2.01 3.66 1.02 4 0 C4.99 0 5.98 0 7 0 C7.99 2.31 8.98 4.62 10 7 C10.99 4.69 11.98 2.38 13 0 C16.96 0 20.92 0 25 0 C25.28875 0.969375 25.5775 1.93875 25.875 2.9375 C26.64214682 6.10664203 26.64214682 6.10664203 29 7 C29.66 4.69 30.32 2.38 31 0 C31.99 0 32.98 0 34 0 C33.79503906 0.60328125 33.59007812 1.2065625 33.37890625 1.828125 C33.10949219 2.62734375 32.84007812 3.4265625 32.5625 4.25 C32.29566406 5.03890625 32.02882812 5.8278125 31.75390625 6.640625 C31.08045292 8.74821988 30.50849405 10.84753973 30 13 C28.68 13 27.36 13 26 13 C24.68 9.37 23.36 5.74 22 2 C21.67 8.27 21.34 14.54 21 21 C21.99 21 22.98 21 24 21 C24 19.68 24 18.36 24 17 C24.99 17 25.98 17 27 17 C27 18.32 27 19.64 27 21 C27.99 21 28.98 21 30 21 C30 21.99 30 22.98 30 24 C29.34 24 28.68 24 28 24 C28 26.31 28 28.62 28 31 C28.66 30.67 29.32 30.34 30 30 C30.33926947 27.66752239 30.67240066 25.33414529 31 23 C33 21 33 21 35.6015625 20.8046875 C38.40104167 20.86979167 41.20052083 20.93489583 44 21 C44 25.29 44 29.58 44 34 C44.66 34.33 45.32 34.66 46 35 C46 28.4 46 21.8 46 15 C46.99 15 47.98 15 49 15 C49 21.6 49 28.2 49 35 C49.66 35.33 50.32 35.66 51 36 C50.67 38.31 50.34 40.62 50 43 C41.66959578 43.13884007 41.66959578 43.13884007 38 42 C36.34450469 41.61500109 34.6777567 41.27206865 33 41 C32.67 41.33 32.34 41.66 32 42 C29.13732433 42.07325168 26.299281 42.09238205 23.4375 42.0625 C22.63119141 42.05798828 21.82488281 42.05347656 20.99414062 42.04882812 C18.99606244 42.03700518 16.99802217 42.01906914 15 42 C14.67 41.01 14.34 40.02 14 39 C13.01 39.495 13.01 39.495 12 40 C9.87109375 39.765625 9.87109375 39.765625 7.4375 39.25 C6.22900391 39.01023437 6.22900391 39.01023437 4.99609375 38.765625 C4.00802734 38.38664062 4.00802734 38.38664062 3 38 C2.67 37.01 2.34 36.02 2 35 C4.64 35.33 7.28 35.66 10 36 C10.66 35.01 11.32 34.02 12 33 C10.9275 33.268125 9.855 33.53625 8.75 33.8125 C7.5125 33.874375 6.275 33.93625 5 34 C2.5625 31.5625 2.5625 31.5625 1 29 C0.67 30.65 0.34 32.3 0 34 C-1.32 34 -2.64 34 -4 34 C-4.33 32.02 -4.66 30.04 -5 28 C-5.33 29.98 -5.66 31.96 -6 34 C-7.60332791 34.08121924 -9.20784026 34.13929134 -10.8125 34.1875 C-12.15248047 34.23970703 -12.15248047 34.23970703 -13.51953125 34.29296875 C-16 34 -16 34 -17.80078125 32.70703125 C-19.79958597 29.86182713 -19.35896649 27.35035393 -19 24 C-17.875 22.0625 -17.875 22.0625 -16 21 C-12.8125 20.8125 -12.8125 20.8125 -10 21 C-9.67 19.02 -9.34 17.04 -9 15 C-7.35 15.33 -5.7 15.66 -4 16 C-4 15.34 -4 14.68 -4 14 C-4.804375 13.608125 -5.60875 13.21625 -6.4375 12.8125 C-9 11 -9 11 -10.0625 7.5625 C-10 4 -10 4 -8.4375 1.5625 C-5.34111489 -0.42236225 -3.61581862 -0.53852618 0 0 Z " fill="#EFEEF1" transform="translate(108,82)"/>
<path d="M0 0 C2.64 0 5.28 0 8 0 C8.28875 0.969375 8.5775 1.93875 8.875 2.9375 C9.64214682 6.10664203 9.64214682 6.10664203 12 7 C12.66 4.69 13.32 2.38 14 0 C14.99 0 15.98 0 17 0 C16.79503906 0.60328125 16.59007812 1.2065625 16.37890625 1.828125 C16.10949219 2.62734375 15.84007812 3.4265625 15.5625 4.25 C15.29566406 5.03890625 15.02882812 5.8278125 14.75390625 6.640625 C14.08045292 8.74821988 13.50849405 10.84753973 13 13 C11.68 13 10.36 13 9 13 C7.68 9.37 6.36 5.74 5 2 C4.67 8.27 4.34 14.54 4 21 C4.99 21 5.98 21 7 21 C7 19.68 7 18.36 7 17 C7.99 17 8.98 17 10 17 C10 18.32 10 19.64 10 21 C10.99 21 11.98 21 13 21 C13 21.99 13 22.98 13 24 C12.34 24 11.68 24 11 24 C11 26.31 11 28.62 11 31 C11.66 30.67 12.32 30.34 13 30 C13.33926947 27.66752239 13.67240066 25.33414529 14 23 C16 21 16 21 18.6015625 20.8046875 C21.40104167 20.86979167 24.20052083 20.93489583 27 21 C27 25.29 27 29.58 27 34 C27.66 34.33 28.32 34.66 29 35 C29 28.4 29 21.8 29 15 C29.99 15 30.98 15 32 15 C32 21.6 32 28.2 32 35 C32.99 35.495 32.99 35.495 34 36 C33.67 38.31 33.34 40.62 33 43 C24.66959578 43.13884007 24.66959578 43.13884007 21 42 C19.34450469 41.61500109 17.6777567 41.27206865 16 41 C15.67 41.33 15.34 41.66 15 42 C12.30345146 42.07319621 9.63308542 42.09242537 6.9375 42.0625 C5.79958008 42.05573242 5.79958008 42.05573242 4.63867188 42.04882812 C2.75908129 42.0370068 0.87953101 42.01907078 -1 42 C-1 40.33333333 -1 38.66666667 -1 37 C-0.01 36.505 -0.01 36.505 1 36 C0.67 35.34 0.34 34.68 0 34 C-0.08658569 31.44637396 -0.11562516 28.9204558 -0.09765625 26.3671875 C-0.0962413 25.61535187 -0.09482635 24.86351624 -0.09336853 24.08889771 C-0.08776465 21.6842249 -0.07521157 19.27964473 -0.0625 16.875 C-0.0574855 15.24609509 -0.0529225 13.61718873 -0.04882812 11.98828125 C-0.03779397 7.99215173 -0.02052679 3.99609158 0 0 Z " fill="#AAECE0" transform="translate(125,82)"/>
<path d="M0 0 C10.23 0 20.46 0 31 0 C31 10.23 31 20.46 31 31 C27.04 31 23.08 31 19 31 C19 24.07 19 17.14 19 10 C12.73 10 6.46 10 0 10 C0 6.7 0 3.4 0 0 Z " fill="#373843" transform="translate(49,82)"/>
<path d="M0 0 C1.875 1.1875 1.875 1.1875 3 3 C3.1875 5.6875 3.1875 5.6875 3 8 C-1.455 8.495 -1.455 8.495 -6 9 C-3.23735711 9.59732819 -0.83967231 10 2 10 C2 10.66 2 11.32 2 12 C1.34 12 0.68 12 0 12 C-0.99862699 19.36487404 -1.10331031 26.57313685 -1 34 C-1.99 34 -2.98 34 -4 34 C-4.33 32.02 -4.66 30.04 -5 28 C-5.33 29.98 -5.66 31.96 -6 34 C-7.60332791 34.08121924 -9.20784026 34.13929134 -10.8125 34.1875 C-12.15248047 34.23970703 -12.15248047 34.23970703 -13.51953125 34.29296875 C-16 34 -16 34 -17.80078125 32.70703125 C-19.79958597 29.86182713 -19.35896649 27.35035393 -19 24 C-17.875 22.0625 -17.875 22.0625 -16 21 C-12.8125 20.8125 -12.8125 20.8125 -10 21 C-9.67 19.02 -9.34 17.04 -9 15 C-7.35 15.33 -5.7 15.66 -4 16 C-4 15.34 -4 14.68 -4 14 C-4.804375 13.608125 -5.60875 13.21625 -6.4375 12.8125 C-9 11 -9 11 -10.0625 7.5625 C-10 4 -10 4 -8.4375 1.5625 C-5.34111489 -0.42236225 -3.61581862 -0.53852618 0 0 Z " fill="#4E4D54" transform="translate(108,82)"/>
<path d="M0 0 C2.64 0 5.28 0 8 0 C8.28875 0.969375 8.5775 1.93875 8.875 2.9375 C9.64214682 6.10664203 9.64214682 6.10664203 12 7 C12.66 4.69 13.32 2.38 14 0 C14.99 0 15.98 0 17 0 C16.79503906 0.60328125 16.59007812 1.2065625 16.37890625 1.828125 C16.10949219 2.62734375 15.84007812 3.4265625 15.5625 4.25 C15.29566406 5.03890625 15.02882812 5.8278125 14.75390625 6.640625 C14.08045292 8.74821988 13.50849405 10.84753973 13 13 C11.68 13 10.36 13 9 13 C7.68 9.37 6.36 5.74 5 2 C5 9.26 5 16.52 5 24 C5.66 24 6.32 24 7 24 C7 27.3 7 30.6 7 34 C7.66 34 8.32 34 9 34 C9 36.64 9 39.28 9 42 C5.7 42 2.4 42 -1 42 C-1 40.33333333 -1 38.66666667 -1 37 C-0.01 36.505 -0.01 36.505 1 36 C0.67 35.34 0.34 34.68 0 34 C-0.08658569 31.44637396 -0.11562516 28.9204558 -0.09765625 26.3671875 C-0.0962413 25.61535187 -0.09482635 24.86351624 -0.09336853 24.08889771 C-0.08776465 21.6842249 -0.07521157 19.27964473 -0.0625 16.875 C-0.0574855 15.24609509 -0.0529225 13.61718873 -0.04882812 11.98828125 C-0.03779397 7.99215173 -0.02052679 3.99609158 0 0 Z " fill="#E7ECED" transform="translate(125,82)"/>
<path d="M0 0 C6.93 0 13.86 0 21 0 C21 6.93 21 13.86 21 21 C18.03 21 15.06 21 12 21 C12 16.71 12 12.42 12 8 C8.04 8 4.08 8 0 8 C0 5.36 0 2.72 0 0 Z " fill="#12CC9B" transform="translate(46,94)"/>
<path d="M0 0 C0.90105469 0.02707031 1.80210938 0.05414063 2.73046875 0.08203125 C3.76107422 0.13423828 3.76107422 0.13423828 4.8125 0.1875 C4.89369503 2.43690295 4.95177819 4.68714871 5 6.9375 C5.03480469 8.19046875 5.06960937 9.4434375 5.10546875 10.734375 C4.7989583 14.34711152 4.457444 15.75439362 1.8125 18.1875 C-2.56605495 18.65663089 -4.48334707 18.65693529 -8.1875 16.1875 C-8.1875 15.5275 -8.1875 14.8675 -8.1875 14.1875 C-5.5475 14.5175 -2.9075 14.8475 -0.1875 15.1875 C0.4725 14.1975 1.1325 13.2075 1.8125 12.1875 C0.719375 12.414375 -0.37375 12.64125 -1.5 12.875 C-5.1875 13.1875 -5.1875 13.1875 -7.125 12.1875 C-8.77117385 9.08881981 -8.55591966 6.62608351 -8.1875 3.1875 C-5.86874685 -0.11313559 -3.88647814 -0.15142123 0 0 Z " fill="#3F3F45" transform="translate(118.1875,102.8125)"/>
<path d="M0 0 C2.79947917 0.06510417 5.59895833 0.13020833 8.3984375 0.1953125 C8.3984375 4.4853125 8.3984375 8.7753125 8.3984375 13.1953125 C7.0784375 12.8653125 5.7584375 12.5353125 4.3984375 12.1953125 C4.0684375 12.5253125 3.7384375 12.8553125 3.3984375 13.1953125 C-0.0390625 12.9453125 -0.0390625 12.9453125 -3.6015625 12.1953125 C-5.6015625 9.1953125 -5.6015625 9.1953125 -5.3515625 5.6328125 C-4.49177605 1.69212462 -4.14481981 0.31117266 0 0 Z " fill="#4A4951" transform="translate(143.6015625,102.8046875)"/>
<path d="M0 0 C0.99 0 1.98 0 3 0 C3 6.6 3 13.2 3 20 C3.66 20.33 4.32 20.66 5 21 C4.67 23.31 4.34 25.62 4 28 C1.36 28 -1.28 28 -4 28 C-3.67 27.34 -3.34 26.68 -3 26 C-2.34 26 -1.68 26 -1 26 C-0.67 25.01 -0.34 24.02 0 23 C0.99 22.67 1.98 22.34 3 22 C2.01 22.04125 1.02 22.0825 0 22.125 C-4.23835866 22.1423348 -7.93193985 21.14191162 -12 20 C-12 20.66 -12 21.32 -12 22 C-12.99 22 -13.98 22 -15 22 C-15.33 23.32 -15.66 24.64 -16 26 C-17.60355101 22.49223216 -18.22036864 19.85645121 -18 16 C-16.68 16 -15.36 16 -14 16 C-14 16.66 -14 17.32 -14 18 C-9.34947128 18.26932521 -9.34947128 18.26932521 -5 17 C-5 17.66 -5 18.32 -5 19 C-3.35 19.33 -1.7 19.66 0 20 C0 13.4 0 6.8 0 0 Z " fill="#E5FAF8" transform="translate(154,97)"/>
<path d="M0 0 C1.875 1.1875 1.875 1.1875 3 3 C3.1875 5.6875 3.1875 5.6875 3 8 C-1.455 8.495 -1.455 8.495 -6 9 C-3.23735711 9.59732819 -0.83967231 10 2 10 C2 10.66 2 11.32 2 12 C1.34 12 0.68 12 0 12 C-0.33 14.31 -0.66 16.62 -1 19 C-1.66 19 -2.32 19 -3 19 C-3.061875 18.236875 -3.12375 17.47375 -3.1875 16.6875 C-3.7275976 13.77032619 -3.7275976 13.77032619 -6.5 12.625 C-9 11 -9 11 -10.0625 7.5625 C-10 4 -10 4 -8.4375 1.5625 C-5.34111489 -0.42236225 -3.61581862 -0.53852618 0 0 Z " fill="#4C4B52" transform="translate(108,82)"/>
<path d="M0 0 C2.375 1.75 2.375 1.75 4 4 C4 5.32 4 6.64 4 8 C0.7 8 -2.6 8 -6 8 C-6 8.66 -6 9.32 -6 10 C-2.535 9.505 -2.535 9.505 1 9 C1.33 9.99 1.66 10.98 2 12 C-0.84083641 13.42041821 -2.85477278 13.31452272 -6 13 C-8.7912125 11.01677007 -9.82597224 9.87013879 -10.5 6.5 C-9.33827182 0.69135908 -5.5534724 -0.92557873 0 0 Z " fill="#4D4C53" transform="translate(152,82)"/>
<path d="M0 0 C0.99 0 1.98 0 3 0 C3 11.22 3 22.44 3 34 C2.01 34 1.02 34 0 34 C0 22.78 0 11.56 0 0 Z " fill="#4B4A53" transform="translate(125,82)"/>
<path d="M0 0 C1.65 0 3.3 0 5 0 C5 5.94 5 11.88 5 18 C3.02 18 1.04 18 -1 18 C-1.07495294 14.10244707 -0.93986937 10.75947749 0 7 C0.03888349 4.66699067 0.0448635 2.33290199 0 0 Z " fill="#06D09B" transform="translate(60,95)"/>
<path d="M0 0 C6.93 0 13.86 0 21 0 C21 6.93 21 13.86 21 21 C18.03 21 15.06 21 12 21 C12 20.67 12 20.34 12 20 C14.64 20 17.28 20 20 20 C20 13.73 20 7.46 20 1 C14.06 1 8.12 1 2 1 C2.33 2.32 2.66 3.64 3 5 C5.97 5.33 8.94 5.66 12 6 C12 6.66 12 7.32 12 8 C8.04 8 4.08 8 0 8 C0 5.36 0 2.72 0 0 Z " fill="#4ED1AF" transform="translate(46,94)"/>
<path d="M0 0 C4.29 0 8.58 0 13 0 C13 1.98 13 3.96 13 6 C11.68 6 10.36 6 9 6 C8.67 6.99 8.34 7.98 8 9 C6 7 6 7 4 4 C3.67 4.99 3.34 5.98 3 7 C2.01 7 1.02 7 0 7 C0 4.69 0 2.38 0 0 Z " fill="#595961" transform="translate(43,103)"/>
<path d="M0 0 C0.99 0 1.98 0 3 0 C3.99 2.31 4.98 4.62 6 7 C6.99 4.69 7.98 2.38 9 0 C9.99 0 10.98 0 12 0 C11.54554036 1.41791408 11.08625056 2.83428046 10.625 4.25 C10.36976562 5.03890625 10.11453125 5.8278125 9.8515625 6.640625 C9.04826333 8.86627958 8.10288338 10.90931672 7 13 C6.01 13 5.02 13 4 13 C3.32942113 11.2097939 2.6636531 9.41778511 2 7.625 C1.62875 6.62726563 1.2575 5.62953125 0.875 4.6015625 C0 2 0 2 0 0 Z " fill="#403F47" transform="translate(112,82)"/>
<path d="M0 0 C0.99 0 1.98 0 3 0 C3.28875 0.969375 3.5775 1.93875 3.875 2.9375 C4.64214682 6.10664203 4.64214682 6.10664203 7 7 C7.66 4.69 8.32 2.38 9 0 C9.99 0 10.98 0 12 0 C11.79503906 0.60328125 11.59007812 1.2065625 11.37890625 1.828125 C11.10949219 2.62734375 10.84007812 3.4265625 10.5625 4.25 C10.29566406 5.03890625 10.02882812 5.8278125 9.75390625 6.640625 C9.08045292 8.74821988 8.50849405 10.84753973 8 13 C6.68 13 5.36 13 4 13 C3.32942113 11.2097939 2.6636531 9.41778511 2 7.625 C1.62875 6.62726563 1.2575 5.62953125 0.875 4.6015625 C0 2 0 2 0 0 Z " fill="#49484F" transform="translate(130,82)"/>
<path d="M0 0 C0.99 0 1.98 0 3 0 C3 1.32 3 2.64 3 4 C3.99 4 4.98 4 6 4 C6 4.66 6 5.32 6 6 C5.01 6 4.02 6 3 6 C3 9.63 3 13.26 3 17 C2.01 17 1.02 17 0 17 C0 13.7 0 10.4 0 7 C-0.66 7 -1.32 7 -2 7 C-2 6.01 -2 5.02 -2 4 C-1.34 4 -0.68 4 0 4 C0 2.68 0 1.36 0 0 Z " fill="#494950" transform="translate(132,99)"/>
<path d="M0 0 C0.66 0.33 1.32 0.66 2 1 C2.33 1.99 2.66 2.98 3 4 C3.66 4.33 4.32 4.66 5 5 C5.33 3.68 5.66 2.36 6 1 C6.99 1 7.98 1 9 1 C9 2.98 9 4.96 9 7 C4.71 7 0.42 7 -4 7 C-4 5.35 -4 3.7 -4 2 C-2.68 2 -1.36 2 0 2 C0 1.34 0 0.68 0 0 Z " fill="#3D3D46" transform="translate(47,109)"/>
<path d="M0 0 C0.99 0 1.98 0 3 0 C3 0.99 3 1.98 3 3 C3.66 3.33 4.32 3.66 5 4 C5 8.62 5 13.24 5 18 C4.01 18 3.02 18 2 18 C1.67 16.02 1.34 14.04 1 12 C0.67 12 0.34 12 0 12 C0 8.04 0 4.08 0 0 Z " fill="#939298" transform="translate(102,98)"/>
<path d="M0 0 C0.99 0 1.98 0 3 0 C3 6.27 3 12.54 3 19 C2.01 19 1.02 19 0 19 C0 12.73 0 6.46 0 0 Z " fill="#525057" transform="translate(154,97)"/>
<path d="M0 0 C0.99 0.33 1.98 0.66 3 1 C2.34 1 1.68 1 1 1 C1.66 6.28 2.32 11.56 3 17 C3.33 16.01 3.66 15.02 4 14 C6.0625 13.3125 6.0625 13.3125 8 13 C8.33 13.66 8.66 14.32 9 15 C8.0625 17.125 8.0625 17.125 7 19 C4.33333333 19 1.66666667 19 -1 19 C-0.67 12.73 -0.34 6.46 0 0 Z " fill="#A6D6CE" transform="translate(135,105)"/>
<path d="M0 0 C4.70588235 0.70588235 4.70588235 0.70588235 6 2 C6.125 4.5 6.125 4.5 6 7 C5 8 5 8 2.5625 8.1875 C0 8 0 8 -2 6 C-1.44444444 1.44444444 -1.44444444 1.44444444 0 0 Z " fill="#EEEDF0" transform="translate(114,105)"/>
<path d="M0 0 C2.625 0.375 2.625 0.375 5 1 C5.625 3.375 5.625 3.375 6 6 C5.34 6.66 4.68 7.32 4 8 C1.375 7.625 1.375 7.625 -1 7 C-1.625 4.625 -1.625 4.625 -2 2 C-1.34 1.34 -0.68 0.68 0 0 Z " fill="#F1F0F3" transform="translate(143,105)"/>
<path d="M0 0 C3.53571429 0.53571429 3.53571429 0.53571429 5 2 C5.125 4.5 5.125 4.5 5 7 C4 8 4 8 1.5 8.125 C-1 8 -1 8 -2 7 C-2.1875 4.5625 -2.1875 4.5625 -2 2 C-1.34 1.34 -0.68 0.68 0 0 Z " fill="#F6F5F8" transform="translate(94,105)"/>
<path d="M0 0 C0.66 0 1.32 0 2 0 C2 5.61 2 11.22 2 17 C1.34 17 0.68 17 0 17 C-0.66 13.7 -1.32 10.4 -2 7 C-1.34 7 -0.68 7 0 7 C0 4.69 0 2.38 0 0 Z " fill="#37363D" transform="translate(100,98)"/>
<path d="M0 0 C2.31 0 4.62 0 7 0 C7 0.99 7 1.98 7 3 C5.68 3.33 4.36 3.66 3 4 C2.67 6.97 2.34 9.94 2 13 C1.34 13 0.68 13 0 13 C0 8.71 0 4.42 0 0 Z " fill="#3E3D42" transform="translate(91,82)"/>
<path d="M0 0 C2.97 0 5.94 0 9 0 C8.67 1.65 8.34 3.3 8 5 C5.36 5 2.72 5 0 5 C0 3.33333333 0 1.66666667 0 0 Z " fill="#8DD5C3" transform="translate(124,119)"/>
<path d="M0 0 C3.63 0 7.26 0 11 0 C11 0.99 11 1.98 11 3 C7.71303767 3.79953138 6.28976808 4.09658936 3 3 C2.67 3.99 2.34 4.98 2 6 C1.34 6 0.68 6 0 6 C0 4.02 0 2.04 0 0 Z " fill="#38353F" transform="translate(44,104)"/>
<path d="M0 0 C0.99 0 1.98 0 3 0 C3.226875 0.78375 3.45375 1.5675 3.6875 2.375 C4.78125 5.21875 4.78125 5.21875 7.625 6.3125 C8.800625 6.6528125 8.800625 6.6528125 10 7 C9.67 7.66 9.34 8.32 9 9 C5.625 8.6875 5.625 8.6875 2 8 C-0.1519437 4.77208445 -0.20086443 3.71599191 0 0 Z " fill="#4C4D54" transform="translate(138,107)"/>
<path d="M0 0 C0.99 0.33 1.98 0.66 3 1 C2.34 1 1.68 1 1 1 C1 3.31 1 5.62 1 8 C-0.11375 8.2475 -1.2275 8.495 -2.375 8.75 C-6.04615198 9.61005339 -6.04615198 9.61005339 -7.4375 12.125 C-7.623125 12.74375 -7.80875 13.3625 -8 14 C-8 12.68 -8 11.36 -8 10 C-8.66 9.67 -9.32 9.34 -10 9 C-8.875 7.5 -8.875 7.5 -7 6 C-3.8125 5.8125 -3.8125 5.8125 -1 6 C-0.67 4.02 -0.34 2.04 0 0 Z " fill="#58575D" transform="translate(99,97)"/>
<path d="M0 0 C1.23556641 0.01740234 1.23556641 0.01740234 2.49609375 0.03515625 C3.32238281 0.04417969 4.14867188 0.05320312 5 0.0625 C5.63808594 0.07410156 6.27617188 0.08570312 6.93359375 0.09765625 C7.26359375 1.08765625 7.59359375 2.07765625 7.93359375 3.09765625 C7.30710937 3.14664063 6.680625 3.195625 6.03515625 3.24609375 C5.21789062 3.32085937 4.400625 3.395625 3.55859375 3.47265625 C2.74648437 3.54226562 1.934375 3.611875 1.09765625 3.68359375 C-1.26974816 3.92658213 -1.26974816 3.92658213 -3.06640625 6.09765625 C-3.10912725 4.4315372 -3.10704457 2.7638274 -3.06640625 1.09765625 C-2.06640625 0.09765625 -2.06640625 0.09765625 0 0 Z " fill="#939298" transform="translate(101.06640625,84.90234375)"/>
<path d="M0 0 C3.3 0 6.6 0 10 0 C10 1.32 10 2.64 10 4 C8.33388095 4.042721 6.66617115 4.04063832 5 4 C4.67 3.67 4.34 3.34 4 3 C3.34 3.66 2.68 4.32 2 5 C1.34 4.67 0.68 4.34 0 4 C0 2.68 0 1.36 0 0 Z " fill="#8E8E8F" transform="translate(61,75)"/>
<path d="M0 0 C1.65 0.33 3.3 0.66 5 1 C4.67 2.65 4.34 4.3 4 6 C2.35 5.67 0.7 5.34 -1 5 C-0.67 3.35 -0.34 1.7 0 0 Z " fill="#A3A3A3" transform="translate(53,74)"/>
<path d="M0 0 C0.66 0 1.32 0 2 0 C2.2475 0.61875 2.495 1.2375 2.75 1.875 C4.20628639 4.35068687 5.37812506 4.95125002 8 6 C8 6.66 8 7.32 8 8 C3.55063291 8.36075949 3.55063291 8.36075949 1.1875 6.8125 C-0.36678206 4.44017475 -0.22537188 2.77958655 0 0 Z " fill="#43424A" transform="translate(110,108)"/>
<path d="M0 0 C0.33 0.66 0.66 1.32 1 2 C2.98 2 4.96 2 7 2 C7 2.33 7 2.66 7 3 C4.36 3 1.72 3 -1 3 C-0.34 4.32 0.32 5.64 1 7 C0.01 7.33 -0.98 7.66 -2 8 C-2.33 7.01 -2.66 6.02 -3 5 C-3.99 5.495 -3.99 5.495 -5 6 C-4.1875 3.5625 -4.1875 3.5625 -3 1 C-2.01 0.67 -1.02 0.34 0 0 Z " fill="#D8F5F1" transform="translate(125,116)"/>
<path d="M0 0 C2.97 0 5.94 0 9 0 C9 1.65 9 3.3 9 5 C8.67 3.68 8.34 2.36 8 1 C7.34 1 6.68 1 6 1 C5.67 2.32 5.34 3.64 5 5 C3.35 5 1.7 5 0 5 C0.99 3.68 1.98 2.36 3 1 C2.01 0.67 1.02 0.34 0 0 Z " fill="#71C7AF" transform="translate(148,119)"/>
<path d="M0 0 C1.134375 0.020625 2.26875 0.04125 3.4375 0.0625 C3.4375 1.0525 3.4375 2.0425 3.4375 3.0625 C2.674375 3.041875 1.91125 3.02125 1.125 3 C-1.66435786 2.93307159 -1.66435786 2.93307159 -4.5625 4.0625 C-4.8925 4.7225 -5.2225 5.3825 -5.5625 6.0625 C-4.48849278 0.07874549 -4.48849278 0.07874549 0 0 Z " fill="#403F45" transform="translate(144.5625,102.9375)"/>
<path d="M0 0 C1.98 0 3.96 0 6 0 C6 1.66666667 6 3.33333333 6 5 C4.02 5 2.04 5 0 5 C0 3.35 0 1.7 0 0 Z " fill="#A09FA4" transform="translate(146,82)"/>
<path d="M0 0 C0.66 0.66 1.32 1.32 2 2 C1.34 3.32 0.68 4.64 0 6 C-2.15634036 6 -3.92446352 5.5534764 -6 5 C-5.67 3.68 -5.34 2.36 -5 1 C-4.67 1.99 -4.34 2.98 -4 4 C-3.67 3.01 -3.34 2.02 -3 1 C-2.01 0.67 -1.02 0.34 0 0 Z " fill="#76C5B1" transform="translate(142,118)"/>
<path d="M0 0 C2.475 0.495 2.475 0.495 5 1 C5 2.32 5 3.64 5 5 C3.35 5 1.7 5 0 5 C0 3.35 0 1.7 0 0 Z " fill="#A0E2D3" transform="translate(124,75)"/>
<path d="M0 0 C0.99 0 1.98 0 3 0 C3.66 2.31 4.32 4.62 5 7 C4.01 7.33 3.02 7.66 2 8 C1.34 5.36 0.68 2.72 0 0 Z " fill="#4A494F" transform="translate(112,82)"/>
<path d="M0 0 C-0.66 1.32 -1.32 2.64 -2 4 C-6.75 3.25 -6.75 3.25 -9 1 C-2.25 0 -2.25 0 0 0 Z " fill="#E0E1E5" transform="translate(120,115)"/>
<path d="M0 0 C2 2 2 2 2.125 4.625 C2.08375 5.40875 2.0425 6.1925 2 7 C-0.31 7 -2.62 7 -5 7 C-4.0409375 6.1028125 -4.0409375 6.1028125 -3.0625 5.1875 C-0.79689611 3.09189663 -0.79689611 3.09189663 0 0 Z " fill="#323139" transform="translate(121,108)"/>
<path d="M0 0 C0.99 0 1.98 0 3 0 C3.66 2.97 4.32 5.94 5 9 C4.67 8.34 4.34 7.68 4 7 C3.34 7 2.68 7 2 7 C1.34 4.69 0.68 2.38 0 0 Z " fill="#3D3C41" transform="translate(130,82)"/>
<path d="M0 0 C-0.33 0.99 -0.66 1.98 -1 3 C-3.31 3 -5.62 3 -8 3 C-8 2.34 -8 1.68 -8 1 C-5.29120665 -0.35439668 -2.99066732 -0.06501451 0 0 Z " fill="#4A494F" transform="translate(108,82)"/>
<path d="M0 0 C0.99 0 1.98 0 3 0 C2.34 2.31 1.68 4.62 1 7 C0.01 6.67 -0.98 6.34 -2 6 C-1.34 4.02 -0.68 2.04 0 0 Z " fill="#48474C" transform="translate(121,82)"/>
<path d="M0 0 C0.66 0 1.32 0 2 0 C2.66 1.98 3.32 3.96 4 6 C3.34 6.66 2.68 7.32 2 8 C0 6 0 6 -0.125 2.875 C-0.08375 1.92625 -0.0425 0.9775 0 0 Z " fill="#3C3B40" transform="translate(89,107)"/>
<path d="M0 0 C1.5 1.125 1.5 1.125 3 3 C3.1875 6.1875 3.1875 6.1875 3 9 C2.34 8.67 1.68 8.34 1 8 C0.40644386 5.35139573 0.25790731 2.70802678 0 0 Z " fill="#DAFDF8" transform="translate(136,114)"/>
<path d="M0 0 C1.65 0 3.3 0 5 0 C5 0.99 5 1.98 5 3 C3.35 3.33 1.7 3.66 0 4 C-0.33 3.34 -0.66 2.68 -1 2 C-0.67 1.34 -0.34 0.68 0 0 Z " fill="#2F2E36" transform="translate(50,104)"/>
<path d="M0 0 C0.66 0 1.32 0 2 0 C2 0.66 2 1.32 2 2 C2.66 2 3.32 2 4 2 C4 1.34 4 0.68 4 0 C4.66 0 5.32 0 6 0 C6 1.32 6 2.64 6 4 C4.02 4 2.04 4 0 4 C0 2.68 0 1.36 0 0 Z " fill="#8C8C8E" transform="translate(74,75)"/>
</svg>
